<svg xmlns="http://www.w3.org/2000/svg" width="1920" height="1080" viewBox="0 0 1920 1080">
  <title>overlay-02</title>
  <g id="Layer_2" data-name="Layer 2">
    <polygon points="545 218 547 199 559.75 200.56 564 171 589 174 590 167 669 179 669 186 708 191 640 696 596 692 594 707 509 680 511 648 497 648 522 471 494 468 499 416 528 420 547 268 444 256 450 206 545 218" fill="#e59200" fill-opacity="0.5"/>
    <polygon points="874 452 900 284 1062 307 1038 473 874 452" fill="#00bf68" opacity="0.5"/>
    <polygon points="940.5 738.5 1086.5 758.5 1081.5 787.5 1111.5 790.5 1113.5 762.5 1136.5 765.5 1155.5 621.5 1165.5 622.5 1165 633 1182.5 634.5 1186.5 599.5 1170.5 597.5 1169.5 604.5 1156.5 603.5 1160.19 574.07 1022.5 554.5 1023.5 548.5 1030.5 549.5 1032 527 1004 523 1000.5 545.5 1009.5 546.5 1008.5 552.5 968 547 940.5 738.5" fill="#0000bc" opacity="0.5"/>
  </g>
</svg>
