<svg xmlns="http://www.w3.org/2000/svg" width="1920" height="1080" viewBox="0 0 1920 1080">
  <title>overlay2</title>
  <g id="Layer_2" data-name="Layer 2">
    <polygon points="275 227 277 208 289.75 209.56 294 180 319 183 320 176 399 188 399 195 438 200 370 705 326 701 324 716 239 689 241 657 227 657 252 480 224 477 229 425 258 429 277 277 174 265 180 215 275 227" fill="#e59200" fill-opacity="0.5"/>
    <polygon points="604 458 630 290 792 313 768 479 604 458" fill="#00bf68" opacity="0.5"/>
    <polygon points="670.5 747.5 816.5 767.5 811.5 796.5 841.5 799.5 843.5 771.5 866.5 774.5 885.5 630.5 895.5 631.5 895 642 912.5 643.5 916.5 608.5 900.5 606.5 899.5 613.5 886.5 612.5 890.19 583.07 752.5 563.5 753.5 557.5 760.5 558.5 762 536 734 532 730.5 554.5 739.5 555.5 738.5 561.5 698 556 670.5 747.5" fill="#0000bc" opacity="0.5"/>
  </g>
</svg>
