<svg id="Layer_2" data-name="Layer 2" xmlns="http://www.w3.org/2000/svg" width="1920" height="1080" viewBox="0 0 1920 1080">
  <title>overlay</title>
  <polygon points="554.5 226.5 556.5 207.5 569.25 209.06 573.5 179.5 598.5 182.5 599.5 175.5 678.5 187.5 678.5 194.5 717.5 199.5 649.5 704.5 605.5 700.5 603.5 715.5 518.5 688.5 520.5 656.5 506.5 656.5 531.5 479.5 503.5 476.5 508.5 424.5 537.5 428.5 556.5 276.5 453.5 264.5 459.5 214.5 554.5 226.5" fill="#e59200" fill-opacity="0.5"/>
  <polygon points="883 460 909 292 1071 315 1047 481 883 460" fill="#00bf68" opacity="0.5"/>
  <polygon points="949.5 745.5 1095.5 765.5 1090.5 794.5 1120.5 797.5 1122.5 769.5 1145.5 772.5 1164.5 628.5 1174.5 629.5 1174 640 1191.5 641.5 1195.5 606.5 1179.5 604.5 1178.5 611.5 1165.5 610.5 1169.19 581.07 1031.5 561.5 1032.5 555.5 1039.5 556.5 1041 534 1013 530 1009.5 552.5 1018.5 553.5 1017.5 559.5 977 554 949.5 745.5" fill="#0000bc" opacity="0.5"/>
</svg>
