<svg id="Lag_1" data-name="Lag 1" xmlns="http://www.w3.org/2000/svg" width="50" height="50" viewBox="0 0 50 50">
  <title>you_are_here-01</title>
  <g opacity="0.25" style="isolation: isolate">
    <circle cx="25" cy="25" r="24.18" fill="#0c81af"/>
    <path d="M25,49.23A24.23,24.23,0,0,1,7.86,7.86,24.23,24.23,0,0,1,42.14,42.14,24.08,24.08,0,0,1,25,49.23ZM25,.87A24.13,24.13,0,1,0,49.13,25,24.16,24.16,0,0,0,25,.87Z"/>
  </g>
  <g>
    <circle cx="25" cy="25.06" r="4.87" fill="#0c81af"/>
    <path d="M25,30.75a5.69,5.69,0,1,1,5.69-5.69A5.7,5.7,0,0,1,25,30.75ZM25,21a4,4,0,1,0,4,4A4,4,0,0,0,25,21Z" fill="#fff"/>
  </g>
</svg>
